Coordinates
version=1
nRows=21
nColumns=38
inDegrees=no

Units are S.I. units (second, meters, Newtons, ...)
If the header above contains a line with 'inDegrees', this indicates whether rotational values are in degrees (yes) or radians (no).

endheader
time	pelvis_tilt	pelvis_list	pelvis_rotation	pelvis_tx	pelvis_ty	pelvis_tz	hip_flexion_r	hip_adduction_r	hip_rotation_r	knee_angle_r	ankle_angle_r	subtalar_angle_r	mtp_angle_r	hip_flexion_l	hip_adduction_l	hip_rotation_l	knee_angle_l	ankle_angle_l	subtalar_angle_l	mtp_angle_l	lumbar_extension	lumbar_bending	lumbar_rotation	arm_flex_r	arm_add_r	arm_rot_r	elbow_flex_r	pro_sup_r	wrist_flex_r	wrist_dev_r	arm_flex_l	arm_add_l	arm_rot_l	elbow_flex_l	pro_sup_l	wrist_flex_l	wrist_dev_l
10	2.56933	1.42545	-0.993718	0.759961	1.71157	0.982631	0.0815973	0.118708	-0.266572	0.346835	0.0300525	0	0	-0.00485582	-0.135073	-0.19237	0.266859	0.117604	0	0	-0.162317	0.177242	0.0325344	0.643335	-0.191849	0.427911	1.17437	1.5708	0	0	0.759037	-0.178932	0.433465	0.769567	1.5708	0	0
10.01	2.57102	1.42695	-0.993737	0.759917	1.70984	0.98266	0.083985	0.117595	-0.268455	0.345192	0.0275864	0	0	-0.00239665	-0.13399	-0.192123	0.268654	0.121977	0	0	-0.161611	0.177042	0.0331305	0.639049	-0.194392	0.426545	1.18164	1.5708	0	0	0.757074	-0.178102	0.432931	0.771944	1.5708	0	0
10.02	2.57278	1.42842	-0.993729	0.759833	1.70811	0.982679	0.0863097	0.116491	-0.270426	0.343369	0.0250909	0	0	-0.00026591	-0.132859	-0.191674	0.270611	0.126997	0	0	-0.16077	0.176745	0.0335438	0.635727	-0.197407	0.426913	1.18817	1.5708	0	0	0.755296	-0.177237	0.432746	0.773985	1.5708	0	0
10.03	2.57445	1.42978	-0.993653	0.759744	1.70641	0.982707	0.0885831	0.115432	-0.272361	0.341723	0.0227368	0	0	0.0011393	-0.131731	-0.190815	0.272364	0.132274	0	0	-0.159616	0.176295	0.0333622	0.630345	-0.199021	0.42354	1.19594	1.5708	0	0	0.753217	-0.176799	0.43257	0.77609	1.5708	0	0
10.04	2.57609	1.43069	-0.993741	0.759597	1.70471	0.982732	0.0904797	0.11453	-0.27401	0.340126	0.0205262	0	0	0.00162183	-0.130844	-0.190015	0.274277	0.137697	0	0	-0.158857	0.17616	0.033535	0.626516	-0.201432	0.422863	1.20309	1.5708	0	0	0.751233	-0.176155	0.432612	0.778263	1.5708	0	0
10.05	2.57653	1.4314	-0.99284	0.759396	1.70301	0.98275	0.0922217	0.113865	-0.275125	0.338363	0.0180073	0	0	0.00156483	-0.13023	-0.189484	0.27643	0.143236	0	0	-0.157947	0.176217	0.0335684	0.621479	-0.203407	0.420192	1.21141	1.5708	0	0	0.74894	-0.175615	0.432416	0.780601	1.5708	0	0
10.06	2.57499	1.43191	-0.989925	0.759165	1.70131	0.982754	0.0939587	0.113549	-0.275858	0.336646	0.0150438	0	0	0.00114374	-0.130055	-0.1885	0.279041	0.148849	0	0	-0.156881	0.176549	0.0334984	0.615135	-0.204916	0.414567	1.22095	1.5708	0	0	0.746484	-0.175186	0.432601	0.783186	1.5708	0	0
10.07	2.57046	1.43221	-0.983538	0.758849	1.69961	0.982718	0.0957066	0.113604	-0.277065	0.334825	0.0120604	0	0	0.000780225	-0.130506	-0.186975	0.282597	0.153399	0	0	-0.155692	0.177526	0.0333708	0.611048	-0.20768	0.412304	1.22939	1.5708	0	0	0.744029	-0.17464	0.433587	0.786303	1.5708	0	0
10.08	2.56543	1.43255	-0.976084	0.758418	1.69794	0.982668	0.0976654	0.113332	-0.279608	0.333348	0.00953797	0	0	0.000310109	-0.13091	-0.184471	0.286559	0.156729	0	0	-0.153918	0.17852	0.0322249	0.605699	-0.209811	0.408147	1.23769	1.5708	0	0	0.741052	-0.174234	0.434215	0.789612	1.5708	0	0
10.09	2.56085	1.43261	-0.968821	0.757937	1.6963	0.982639	0.0990669	0.11314	-0.282528	0.331428	0.00722881	0	0	-0.000918274	-0.131486	-0.181433	0.290646	0.159669	0	0	-0.152069	0.179386	0.0306334	0.598019	-0.211156	0.400186	1.24718	1.5708	0	0	0.737804	-0.173798	0.434654	0.793048	1.5708	0	0
10.1	2.55465	1.43224	-0.959885	0.757448	1.69464	0.98258	0.100162	0.113567	-0.285056	0.329327	0.00500771	0	0	-0.00235423	-0.132804	-0.178676	0.295895	0.162888	0	0	-0.150436	0.18058	0.029202	0.591777	-0.213199	0.39494	1.25505	1.5708	0	0	0.734657	-0.173037	0.434846	0.796541	1.5708	0	0
10.11	2.63476	1.39539	-1.0882	0.763907	1.68951	0.985926	0.0606651	0.137205	-0.211978	0.320153	-0.0159002	0	0	-0.0580062	-0.148244	-0.243844	0.29372	0.162706	0	0	-0.212164	0.175682	0.0847107	0.604185	-0.212821	0.390525	1.26141	1.5708	0	0	0.752431	-0.176739	0.443324	0.80223	1.5708	0	0
10.12	2.54272	1.43091	-0.942819	0.75642	1.69128	0.982446	0.101244	0.115048	-0.28926	0.323592	-0.000483499	0	0	-0.00652219	-0.136352	-0.175224	0.308366	0.170708	0	0	-0.147314	0.182886	0.0264773	0.578316	-0.21596	0.382285	1.26975	1.5708	0	0	0.72783	-0.1713	0.434556	0.804506	1.5708	0	0
10.13	2.53313	1.43086	-0.930796	0.755809	1.68962	0.982307	0.10277	0.115672	-0.291826	0.321025	-0.0031575	0	0	-0.00814078	-0.13818	-0.173828	0.315331	0.175346	0	0	-0.147235	0.181487	0.0345087	0.569447	-0.217292	0.363653	1.27678	1.5708	0	0	0.731073	-0.162866	0.442842	0.804179	1.5708	0	0
10.14	2.53081	1.43006	-0.92589	0.755259	1.68786	0.982227	0.103139	0.115963	-0.294189	0.318498	-0.00594888	0	0	-0.011019	-0.139918	-0.172605	0.322959	0.180056	0	0	-0.143272	0.18436	0.0240996	0.564631	-0.219965	0.371014	1.28334	1.5708	0	0	0.720595	-0.168258	0.433027	0.81264	1.5708	0	0
10.15	2.52519	1.42931	-0.918173	0.754599	1.68609	0.9821	0.104217	0.116316	-0.296073	0.316712	-0.00839826	0	0	-0.0139185	-0.141981	-0.171837	0.331055	0.185005	0	0	-0.141645	0.185272	0.0232987	0.558838	-0.222356	0.367666	1.28846	1.5708	0	0	0.716604	-0.166122	0.43074	0.817236	1.5708	0	0
10.16	2.51832	1.42862	-0.9093	0.753917	1.68429	0.981944	0.105584	0.116752	-0.297684	0.315048	-0.0106967	0	0	-0.0168461	-0.144256	-0.171349	0.339536	0.189607	0	0	-0.139772	0.186186	0.022731	0.552529	-0.224733	0.364389	1.29308	1.5708	0	0	0.712673	-0.1637	0.428257	0.8217	1.5708	0	0
10.17	2.51187	1.42795	-0.901142	0.753191	1.68246	0.981768	0.107052	0.117014	-0.299512	0.313669	-0.0126604	0	0	-0.0199965	-0.146506	-0.171258	0.348296	0.193632	0	0	-0.137923	0.187007	0.0224151	0.54619	-0.227261	0.361762	1.297	1.5708	0	0	0.708669	-0.16112	0.425688	0.826204	1.5708	0	0
10.18	2.50431	1.42764	-0.892189	0.752474	1.68058	0.981555	0.109039	0.1172	-0.300731	0.312435	-0.0146636	0	0	-0.0228792	-0.148703	-0.171173	0.357558	0.19776	0	0	-0.135749	0.187637	0.0224776	0.539715	-0.229381	0.35803	1.3011	1.5708	0	0	0.704484	-0.15831	0.422628	0.830868	1.5708	0	0
10.19	2.525	1.43558	-0.905254	0.750125	1.67706	0.981631	0.126165	0.0970499	-0.338866	0.33313	-0.00915494	0	0	-0.026407	-0.143775	-0.187239	0.342885	0.189271	0	0	-0.132328	0.182126	0.0158058	0.536508	-0.232419	0.353909	1.30372	1.5708	0	0	0.702406	-0.153318	0.416693	0.833356	1.5708	0	0
10.2	2.49129	1.42664	-0.877003	0.750898	1.67659	0.981124	0.113609	0.117139	-0.303127	0.311705	-0.0177057	0	0	-0.0296118	-0.152979	-0.170356	0.376822	0.206863	0	0	-0.132182	0.188756	0.0229091	0.526852	-0.233998	0.34865	1.3096	1.5708	0	0	0.69587	-0.15233	0.414889	0.841417	1.5708	0	0
